HIERARCHY
ROOT Hips
{
	OFFSET -0.001795 -0.223333 0.028219
	CHANNELS 6 Xposition Yposition Zposition Zrotation Yrotation Xrotation 
	JOINT LeftUpLeg
	{
		OFFSET 0.069520 -0.091406 -0.006815
		CHANNELS 3 Zrotation Yrotation Xrotation
		JOINT LeftLeg
		{
			OFFSET 0.034277 -0.375199 -0.004496
			CHANNELS 3 Zrotation Yrotation Xrotation
			JOINT LeftFoot
			{
				OFFSET -0.013596 -0.397961 -0.043693
				CHANNELS 3 Zrotation Yrotation Xrotation
				JOINT LeftToe
				{
					OFFSET 0.026358 -0.055791 0.119288
					CHANNELS 3 Zrotation Yrotation Xrotation
					End Site
					{
						OFFSET 0.000000 0.000000 0.000000
					}
				}
			}
		}
	}
	JOINT RightUpLeg
	{
		OFFSET -0.067670 -0.090522 -0.004320
		CHANNELS 3 Zrotation Yrotation Xrotation
		JOINT RightLeg
		{
			OFFSET -0.038290 -0.382569 -0.008850
			CHANNELS 3 Zrotation Yrotation Xrotation
			JOINT RightFoot
			{
				OFFSET 0.015774 -0.398415 -0.042312
				CHANNELS 3 Zrotation Yrotation Xrotation
				JOINT RightToe
				{
					OFFSET -0.025372 -0.048144 0.123348
					CHANNELS 3 Zrotation Yrotation Xrotation
					End Site
					{
						OFFSET 0.000000 0.000000 0.000000
					}
				}
			}
		}
	}
	JOINT Spine
	{
		OFFSET -0.002533 0.108963 -0.026696
		CHANNELS 3 Zrotation Yrotation Xrotation
		JOINT Spine1
		{
			OFFSET 0.005487 0.135180 0.001092
			CHANNELS 3 Zrotation Yrotation Xrotation
			JOINT Spine2
			{
				OFFSET 0.001457 0.052922 0.025425
				CHANNELS 3 Zrotation Yrotation Xrotation
				JOINT Neck
				{
					OFFSET -0.002778 0.213870 -0.042857
					CHANNELS 3 Zrotation Yrotation Xrotation
					JOINT Head
					{
						OFFSET 0.005152 0.064970 0.051349
						CHANNELS 3 Zrotation Yrotation Xrotation
						End Site
						{
							OFFSET 0.000000 0.000000 0.000000
						}
					}
				}
				JOINT LeftShoulder
				{
					OFFSET 0.078845 0.121749 -0.034090
					CHANNELS 3 Zrotation Yrotation Xrotation
					JOINT LeftArm
					{
						OFFSET 0.090977 0.030469 -0.008868
						CHANNELS 3 Zrotation Yrotation Xrotation
						JOINT LeftForeArm
						{
							OFFSET 0.259612 -0.012772 -0.027456
							CHANNELS 3 Zrotation Yrotation Xrotation
							JOINT LeftHand
							{
								OFFSET 0.249234 0.008986 -0.001171
								CHANNELS 3 Zrotation Yrotation Xrotation
								End Site
								{
									OFFSET 0.000000 0.000000 0.000000
								}
							}
						}
					}
				}
				JOINT RightShoulder
				{
					OFFSET -0.081759 0.118833 -0.038615
					CHANNELS 3 Zrotation Yrotation Xrotation
					JOINT RightArm
					{
						OFFSET -0.096012 0.032551 -0.009143
						CHANNELS 3 Zrotation Yrotation Xrotation
						JOINT RightForeArm
						{
							OFFSET -0.253742 -0.013329 -0.021401
							CHANNELS 3 Zrotation Yrotation Xrotation
							JOINT RightHand
							{
								OFFSET -0.255298 0.007772 -0.005559
								CHANNELS 3 Zrotation Yrotation Xrotation
								End Site
								{
									OFFSET 0.000000 0.000000 0.000000
								}
							}
						}
					}
				}
			}
		}
	}
}
MOTION
Frames: 7
Frame Time: 0.050000
0.000000 0.938446 0.000000 0.179324 -1.366229 7.084625 6.044929 -0.284096 -3.224075 0.397883 -0.085075 1.138583 5.211583 13.785816 19.586188 0.000000 0.000000 0.000000 -4.728321 0.494003 -4.921636 -4.306115 0.333384 -1.311378 1.610605 -1.380920 10.410147 0.000000 0.000000 0.000000 5.451275 0.345077 -5.771752 -2.972620 1.359754 -4.486354 -5.245799 4.415284 4.088666 4.082320 -1.837857 -8.813778 0.000000 0.000000 0.000000 -17.317336 -1.008952 -2.212219 -54.400760 -6.697014 -3.253880 -5.113523 -15.150211 1.122535 0.000000 0.000000 0.000000 14.657026 -8.351231 -4.711737 63.984296 1.129572 -5.219555 5.902794 22.051564 1.991418 0.000000 0.000000 0.000000 
-0.000015 0.937945 0.000349 0.154048 -1.954084 7.868388 5.860736 -0.267757 -2.690753 0.610659 -0.026689 -1.045345 5.492859 14.115895 19.874166 0.000000 0.000000 0.000000 -4.847112 0.570843 -5.979769 -4.190324 0.330807 -1.132530 1.796330 -1.024075 10.278881 0.000000 0.000000 0.000000 6.994999 0.430506 -6.404171 -3.991952 1.778178 -4.638681 -6.557013 5.241780 3.430935 3.378330 -1.113553 -10.061948 0.000000 0.000000 0.000000 -18.020285 -0.520800 -2.770663 -53.182554 -6.865956 -2.975786 -5.187094 -14.301762 1.047383 0.000000 0.000000 0.000000 14.473692 -9.874938 -5.353381 65.550173 0.018579 -5.770956 5.850562 21.696129 1.972176 0.000000 0.000000 0.000000 
-0.000071 0.937906 0.000449 0.707978 -1.503798 7.515834 5.453826 -0.282915 -3.062101 0.392728 -0.045796 0.080149 5.224029 13.798834 19.722393 0.000000 0.000000 0.000000 -5.270440 0.554307 -5.903050 -4.418221 0.414495 -0.383339 1.480696 -1.431575 9.888096 0.000000 0.000000 0.000000 6.555863 0.390304 -6.087805 -3.945269 1.747796 -5.553503 -6.735543 4.320061 3.984164 2.626228 -0.729048 -9.532339 0.000000 0.000000 0.000000 -18.077035 -0.625413 -2.548076 -52.997874 -6.422519 -3.244038 -4.556802 -13.748352 0.954384 0.000000 0.000000 0.000000 15.777297 -8.797200 -5.073970 63.912983 0.052037 -5.819916 6.002648 21.547720 1.956915 0.000000 0.000000 0.000000 
-0.000219 0.937759 0.000466 0.886845 -1.355114 7.895566 5.719000 -0.305024 -3.429998 -0.349343 0.040630 -0.074631 5.117933 13.674166 19.745477 0.000000 0.000000 0.000000 -5.461351 0.586762 -6.472835 -4.394123 0.440114 -0.035115 1.343369 -1.631616 9.760364 0.000000 0.000000 0.000000 6.751186 0.417044 -6.407588 -4.465200 1.977510 -4.897344 -6.793916 3.555940 2.625677 1.963176 -0.501274 -8.012885 0.000000 0.000000 0.000000 -18.301935 -0.079106 -2.767823 -53.177418 -6.994072 -2.878758 -2.896281 -12.633536 0.703812 0.000000 0.000000 0.000000 14.534236 -8.940290 -5.102020 64.699419 -0.622161 -6.088707 6.819651 22.134525 2.117983 0.000000 0.000000 0.000000 
-0.000510 0.938356 0.000380 1.089308 -0.934302 7.814298 5.403549 -0.317716 -3.630473 -0.036513 -0.004275 0.252666 4.854872 13.389637 19.852283 0.000000 0.000000 0.000000 -5.432442 0.576754 -6.398753 -4.712595 0.490828 0.155938 1.160460 -1.989445 9.853917 0.000000 0.000000 0.000000 6.357042 0.392823 -6.276717 -4.017849 1.792963 -5.040401 -7.043591 3.313558 2.701279 1.870540 -0.383005 -8.438686 0.000000 0.000000 0.000000 -18.176690 -0.255404 -2.667473 -53.082349 -7.288025 -2.749865 -3.078438 -12.250040 0.701929 0.000000 0.000000 0.000000 14.582916 -9.095287 -5.177419 64.656353 -0.386181 -5.954413 6.566082 21.908104 2.052139 0.000000 0.000000 0.000000 
-0.000779 0.938954 0.000309 1.150239 -1.001508 8.007553 5.456361 -0.327183 -3.809970 -0.237047 0.019927 0.190344 4.837336 13.388429 20.125466 0.000000 0.000000 0.000000 -5.450434 0.580670 -6.412328 -4.784704 0.464636 -0.243180 1.241538 -1.950204 10.137555 0.000000 0.000000 0.000000 6.269439 0.394640 -6.349728 -4.118460 1.831420 -5.111052 -6.916650 3.309359 2.370297 2.018084 -0.554558 -7.882520 0.000000 0.000000 0.000000 -18.487816 0.134075 -2.916794 -52.784568 -7.344968 -2.667328 -2.780626 -11.819225 0.646894 0.000000 0.000000 0.000000 14.407175 -9.306166 -5.271662 64.762329 -0.532763 -6.000706 6.557038 21.838712 2.036283 0.000000 0.000000 0.000000 
-0.000976 0.939355 0.000225 1.141302 -0.832803 8.007934 5.446478 -0.339925 -4.055952 -0.135571 -0.002915 0.549104 4.744424 13.293198 20.184484 0.000000 0.000000 0.000000 -5.282887 0.574299 -6.293040 -5.003694 0.474276 -0.402131 1.203147 -2.078402 10.313345 0.000000 0.000000 0.000000 6.130467 0.365167 -6.100068 -4.000594 1.783927 -5.130833 -6.846375 3.022461 2.121936 2.250670 -0.676478 -8.292265 0.000000 0.000000 0.000000 -18.599907 0.254795 -2.957196 -52.557443 -7.213538 -2.691466 -2.851135 -12.192022 0.676585 0.000000 0.000000 0.000000 14.600603 -9.240753 -5.303088 64.590142 -0.707685 -6.077670 6.384312 22.171204 2.028896 0.000000 0.000000 0.000000 
